# xmcd
#
# Track frame offsets:
#	150
#	18464
#	34117
#	51677
#	69172
#	83464
#	97497
#	113013
#	127749
#	145062
#	160952
#	175246
#	187778
#	211674
#	226050
#	242277
#	259386
#	275702
#	291216
#	302587
#	323311
#	344370
#
# Disc length: 4657 seconds
#
# Revision: 1
# Processed by: cddbd v1.4PL0 Copyright (c) Steve Scherf et al.
# Submitted via: EasyCDDAExtractor 5.0.6
#
DISCID=2a122f16
DTITLE=Psuedo - Feddy/Tuck/Rich/Ste - Fishing On The Moon and His Own Mix
DYEAR=1900
DGENRE=
TTITLE0=Let It Be Summer
TTITLE1=A Brand New Dream
TTITLE2=Anyway
TTITLE3=Faces
TTITLE4=Big Yellow Taxi
TTITLE5=Watching The Walls
TTITLE6=The Road
TTITLE7=Katy's Car
TTITLE8=Fish On The Moon
TTITLE9=Stars
TTITLE10=Philistines
TTITLE11=The Deed Was Done
TTITLE12=His Own
TTITLE13=Strawberry Fields
TTITLE14=Feel
TTITLE15=Suicide Train
TTITLE16=Creep
TTITLE17=All In The Name Of Fun
TTITLE18=Big Little Baby
TTITLE19=Phantasmagoria In Two
TTITLE20=Nothing At All
TTITLE21=Littlest Hobo
EXTD=
EXTT0=
EXTT1=
EXTT2=
EXTT3=
EXTT4=
EXTT5=
EXTT6=
EXTT7=
EXTT8=
EXTT9=
EXTT10=
EXTT11=
EXTT12=
EXTT13=
EXTT14=
EXTT15=
EXTT16=
EXTT17=
EXTT18=
EXTT19=
EXTT20=
EXTT21=
PLAYORDER=
